<?xml version="1.0" encoding="UTF-8" standalone="no"?>
<svg
   xmlns:dc="http://purl.org/dc/elements/1.1/"
   xmlns:cc="http://creativecommons.org/ns#"
   xmlns:rdf="http://www.w3.org/1999/02/22-rdf-syntax-ns#"
   xmlns:svg="http://www.w3.org/2000/svg"
   xmlns="http://www.w3.org/2000/svg"
   xmlns:sodipodi="http://sodipodi.sourceforge.net/DTD/sodipodi-0.dtd"
   xmlns:inkscape="http://www.inkscape.org/namespaces/inkscape"
   inkscape:version="1.0 (4035a4fb49, 2020-05-01)"
   sodipodi:docname="maid-img-1.svg"
   xml:space="preserve"
   viewBox="0 0 301.80384 178.19414"
   height="178.19414"
   width="301.80383"
   y="0px"
   x="0px"
   id="Capa_1"
   version="1.1"><metadata
   id="metadata47"><rdf:RDF><cc:Work
       rdf:about=""><dc:format>image/svg+xml</dc:format><dc:type
         rdf:resource="http://purl.org/dc/dcmitype/StillImage" /><dc:title></dc:title></cc:Work></rdf:RDF></metadata><defs
   id="defs45" /><sodipodi:namedview
   inkscape:current-layer="Capa_1"
   inkscape:window-maximized="1"
   inkscape:window-y="-8"
   inkscape:window-x="-8"
   inkscape:cy="80.979797"
   inkscape:cx="148.42115"
   inkscape:zoom="1.5351647"
   showgrid="false"
   id="namedview43"
   inkscape:window-height="705"
   inkscape:window-width="1366"
   inkscape:pageshadow="2"
   inkscape:pageopacity="0"
   guidetolerance="10"
   gridtolerance="10"
   objecttolerance="10"
   borderopacity="1"
   bordercolor="#666666"
   pagecolor="#ffffff" />
<g
   style="fill:#16aa8a;fill-opacity:0.94902"
   transform="matrix(0.4096304,0,0,0.54548382,86.813427,-62.912285)"
   id="g1086"><g
     style="fill:#16aa8a;fill-opacity:0.94902"
     id="g1030">
	<path
   style="fill:#16aa8a;fill-opacity:0.94902"
   d="m 40.908,319.876 h 307.608 v 42.55 h -219.393 -4.399 c -6.673,-18.325 -24.265,-31.464 -44.881,-31.464 -20.307,0 -37.683,12.75 -44.581,30.66 -8.5,-2.458 -14.72,-10.271 -14.72,-19.562 v -1.807 c 0,-11.261 9.116,-20.377 20.366,-20.377 z m 72.89,54.096 c 0,19.595 -15.943,35.535 -35.543,35.535 -19.587,0 -35.535,-15.94 -35.535,-35.535 0,-19.595 15.948,-35.546 35.535,-35.546 19.6,0 35.543,15.951 35.543,35.546 z m -10.87,0 c 0,-13.604 -11.067,-24.674 -24.673,-24.674 -13.604,0 -24.665,11.07 -24.665,24.674 0,13.598 11.067,24.668 24.665,24.668 13.612,0 24.673,-11.064 24.673,-24.668 z m 370.082,0 c 0,19.595 -15.946,35.535 -35.539,35.535 -19.595,0 -35.54,-15.94 -35.54,-35.535 0,-19.595 15.945,-35.546 35.54,-35.546 19.593,0 35.539,15.951 35.539,35.546 z m -10.867,0 c 0,-13.604 -11.07,-24.674 -24.666,-24.674 -13.605,0 -24.668,11.07 -24.668,24.674 0,13.598 11.062,24.668 24.668,24.668 13.596,0 24.666,-11.064 24.666,-24.668 z M 524.84,271.887 v 80.355 c 0,3.749 -3.04,6.791 -6.788,6.791 h -35.505 c -7.521,-16.536 -24.167,-28.071 -43.497,-28.071 -19.315,0 -35.972,11.535 -43.497,28.071 h -23.948 c -3.754,0 -6.798,-3.042 -6.798,-6.791 V 190.86 c 0,-3.754 3.044,-6.791 6.798,-6.791 h 89.399 c 3.754,0 9.455,1.251 13.587,6.791 z m -31.679,-17.653 -30.559,-50.703 c -2.363,-4.367 -5.264,-6.788 -15.628,-6.788 h -55.451 c -3.75,0 -6.793,3.037 -6.793,6.788 v 50.703 c 0,3.754 3.043,6.791 6.793,6.791 h 94.839 c 3.75,0 6.799,-3.037 6.799,-6.791 z m 26.47,77.177 c 0,-3.489 -2.835,-6.336 -6.337,-6.336 -3.502,0 -6.336,2.847 -6.336,6.336 v 12.008 c 0,3.501 2.834,6.335 6.336,6.335 3.502,0 6.337,-2.834 6.337,-6.335 z M 0,307.717 H 348.516 V 115.333 H 0 Z"
   id="path1028" />
</g><g
     style="fill:#16aa8a;fill-opacity:0.94902"
     id="g1032">
</g><g
     style="fill:#16aa8a;fill-opacity:0.94902"
     id="g1034">
</g><g
     style="fill:#16aa8a;fill-opacity:0.94902"
     id="g1036">
</g><g
     style="fill:#16aa8a;fill-opacity:0.94902"
     id="g1038">
</g><g
     style="fill:#16aa8a;fill-opacity:0.94902"
     id="g1040">
</g><g
     style="fill:#16aa8a;fill-opacity:0.94902"
     id="g1042">
</g><g
     style="fill:#16aa8a;fill-opacity:0.94902"
     id="g1044">
</g><g
     style="fill:#16aa8a;fill-opacity:0.94902"
     id="g1046">
</g><g
     style="fill:#16aa8a;fill-opacity:0.94902"
     id="g1048">
</g><g
     style="fill:#16aa8a;fill-opacity:0.94902"
     id="g1050">
</g><g
     style="fill:#16aa8a;fill-opacity:0.94902"
     id="g1052">
</g><g
     style="fill:#16aa8a;fill-opacity:0.94902"
     id="g1054">
</g><g
     style="fill:#16aa8a;fill-opacity:0.94902"
     id="g1056">
</g><g
     style="fill:#16aa8a;fill-opacity:0.94902"
     id="g1058">
</g><g
     style="fill:#16aa8a;fill-opacity:0.94902"
     id="g1060">
</g></g>
<g
   transform="translate(-26.804343,-120.30153)"
   id="g12">
</g>
<g
   transform="translate(-26.804343,-120.30153)"
   id="g14">
</g>
<g
   transform="translate(-26.804343,-120.30153)"
   id="g16">
</g>
<g
   transform="translate(-26.804343,-120.30153)"
   id="g18">
</g>
<g
   transform="translate(-26.804343,-120.30153)"
   id="g20">
</g>
<g
   transform="translate(-26.804343,-120.30153)"
   id="g22">
</g>
<g
   transform="translate(-26.804343,-120.30153)"
   id="g24">
</g>
<g
   transform="translate(-26.804343,-120.30153)"
   id="g26">
</g>
<g
   transform="translate(-26.804343,-120.30153)"
   id="g28">
</g>
<g
   transform="translate(-26.804343,-120.30153)"
   id="g30">
</g>
<g
   transform="translate(-26.804343,-120.30153)"
   id="g32">
</g>
<g
   transform="translate(-26.804343,-120.30153)"
   id="g34">
</g>
<g
   transform="translate(-26.804343,-120.30153)"
   id="g36">
</g>
<g
   transform="translate(-26.804343,-120.30153)"
   id="g38">
</g>
<g
   transform="translate(-26.804343,-120.30153)"
   id="g40">
</g>
<g
   transform="matrix(0.71750848,0,0,0.64244251,0,-12.323673)"
   style="fill:#175b6f;fill-opacity:0.94902"
   id="g10">
	<g
   style="fill:#175b6f;fill-opacity:0.94902"
   id="g8">
		<path
   style="fill:#175b6f;fill-opacity:0.94902"
   id="path2"
   d="m 77.695,208.593 c -17.985,0 -32.562,14.571 -32.562,32.559 0,17.988 14.576,32.559 32.562,32.559 17.992,0 32.564,-14.57 32.564,-32.559 0,-17.989 -14.572,-32.559 -32.564,-32.559 z m 0,46.713 c -7.818,0 -14.153,-6.334 -14.153,-14.154 0,-7.822 6.335,-14.154 14.153,-14.154 7.819,0 14.159,6.332 14.159,14.154 0,7.82 -6.34,14.154 -14.159,14.154 z" />
		<path
   style="fill:#175b6f;fill-opacity:0.94902"
   id="path4"
   d="m 268.854,208.593 c -17.986,0 -32.561,14.571 -32.561,32.559 0,17.988 14.574,32.559 32.561,32.559 17.992,0 32.564,-14.57 32.564,-32.559 0,-17.989 -14.572,-32.559 -32.564,-32.559 z m 0,46.713 c -7.818,0 -14.154,-6.334 -14.154,-14.154 0,-7.822 6.336,-14.154 14.154,-14.154 7.82,0 14.16,6.332 14.16,14.154 0,7.82 -6.34,14.154 -14.16,14.154 z" />
		<path
   style="fill:#175b6f;fill-opacity:0.94902"
   id="path6"
   d="M 330.998,76.741 H 38.915 c -10.701,0 -21.207,8.579 -23.348,19.064 L 3.892,138.423 C 1.751,148.908 0,166.242 0,176.944 v 44.751 c 0,10.7 8.756,19.456 19.457,19.456 h 19.839 c 0,-21.17 17.226,-38.395 38.398,-38.395 21.174,0 38.401,17.223 38.401,38.395 h 114.358 c 0,-21.17 17.227,-38.395 38.398,-38.395 21.176,0 38.402,17.223 38.402,38.395 h 23.74 c 10.703,0 19.457,-8.754 19.457,-19.456 V 96.197 C 350.455,85.496 341.699,76.741 330.998,76.741 Z M 80.856,158.836 H 35.512 l 7.186,-17.019 c 1.254,-2.97 -0.137,-6.394 -3.106,-7.648 -2.972,-1.254 -6.395,0.138 -7.647,3.107 l -8.91,21.103 c -6.015,-1.581 -9.676,-7.214 -8.437,-13.89 l 10.46,-41.74 c 1.465,-7.891 9.23,-14.348 17.256,-14.348 h 38.543 z m 86.583,0 H 92.53 V 88.401 h 74.909 z m 86.582,0 H 179.113 V 88.401 h 74.908 z m 84.502,-14.592 c 0,8.026 -6.566,14.593 -14.594,14.593 H 265.695 V 88.402 h 58.234 c 8.027,0 14.594,6.567 14.594,14.593 z" />
	</g>
</g><g
   style="fill:#16aa8a;fill-opacity:0.94902"
   transform="matrix(0.34833666,0,0,0.28147879,57.684907,81.382037)"
   id="g985"><g
     style="fill:#16aa8a;fill-opacity:0.94902"
     id="g928">
	<path
   style="fill:#16aa8a;fill-opacity:0.94902;stroke:#000000;stroke-width:0;stroke-linecap:round;stroke-linejoin:round"
   d="M 285.083,278.997 H 132.804 l -13.507,32.814 -2.342,5.69 h 29.362 c -0.041,-0.257 -0.079,-0.515 -0.079,-0.783 v -4.907 -9.329 c 0,-2.755 2.233,-4.989 4.989,-4.989 2.755,0 4.989,2.233 4.989,4.989 v 9.329 4.907 c 0,0.268 -0.038,0.526 -0.079,0.783 h 47.897 c -0.041,-0.257 -0.079,-0.515 -0.079,-0.783 v -4.907 -9.329 c 0,-2.755 2.233,-4.989 4.989,-4.989 2.755,0 4.989,2.233 4.989,4.989 v 9.329 4.907 c 0,0.268 -0.038,0.526 -0.079,0.783 h 47.897 c -0.041,-0.257 -0.079,-0.515 -0.079,-0.783 v -4.907 -9.329 c 0,-2.755 2.233,-4.989 4.989,-4.989 2.756,0 4.989,2.233 4.989,4.989 v 9.329 4.907 c 0,0.268 -0.038,0.526 -0.079,0.783 h 29.362 l -2.342,-5.69 z"
   id="path924" />
	<path
   style="fill:#16aa8a;fill-opacity:0.94902;stroke:#000000;stroke-width:0;stroke-linecap:round;stroke-linejoin:round"
   d="m 414.985,150.922 c -0.994,-2.892 -4.515,-5.142 -7.454,-5.142 -12.728,0 -25.456,0 -38.183,0 -2.94,0 -6.461,2.251 -7.454,5.142 -1.366,3.976 -2.239,7.347 -2.64,10.547 -16.795,-32.338 -35.393,-68.331 -35.393,-68.331 -1.829,-5.111 -6.246,-8.854 -11.586,-9.82 -34.4,-6.222 -69.163,-9.376 -103.322,-9.376 -34.158,0 -68.928,3.154 -103.341,9.376 -5.34,0.965 -9.759,4.709 -11.588,9.819 0,0 -18.598,35.994 -35.393,68.331 -0.401,-3.199 -1.274,-6.571 -2.64,-10.547 -0.993,-2.892 -4.514,-5.142 -7.453,-5.142 -12.727,0 -25.456,0 -38.183,0 -2.939,0 -6.46,2.251 -7.455,5.142 -3.867,11.258 -3.864,17.704 10e-4,28.963 0.994,2.892 4.515,5.142 7.454,5.142 12.704,0 25.408,0 38.111,0 0.008,0.476 0.035,0.95 0.088,1.424 -8.037,2.438 -13.888,9.899 -13.888,18.732 v 82.176 4.872 42.301 c 0,5.197 4.211,9.41 9.409,9.41 h 47.362 c 5.197,0 9.41,-4.213 9.41,-9.41 v -22.722 h 7.661 l 16.342,-39.702 c 0.77,-1.87 2.591,-3.09 4.613,-3.09 h 158.962 c 2.022,0 3.844,1.22 4.613,3.09 l 16.341,39.702 h 7.661 v 22.722 c 0,5.197 4.213,9.41 9.41,9.41 h 47.362 c 5.197,0 9.409,-4.213 9.409,-9.41 v -42.301 -4.872 -82.176 c 0,-8.833 -5.851,-16.294 -13.888,-18.732 0.053,-0.474 0.08,-0.948 0.088,-1.424 12.703,0 25.407,0 38.111,0 2.939,0 6.46,-2.249 7.455,-5.142 3.866,-11.258 3.864,-17.704 -0.002,-28.962 z M 115.019,104.224 c 0,0 22.741,-5.772 93.924,-5.772 71.183,0 93.923,5.772 93.923,5.772 l 33.38,80.803 H 81.64 Z M 73.533,244.042 v -26.548 h 57.499 l 17.084,26.548 z m 270.819,0 h -74.583 l 17.084,-26.548 h 57.499 z"
   id="path926" />
</g><g
     style="fill:#16aa8a;fill-opacity:0.94902"
     id="g930">
</g><g
     style="fill:#16aa8a;fill-opacity:0.94902"
     id="g932">
</g><g
     style="fill:#16aa8a;fill-opacity:0.94902"
     id="g934">
</g><g
     style="fill:#16aa8a;fill-opacity:0.94902"
     id="g936">
</g><g
     style="fill:#16aa8a;fill-opacity:0.94902"
     id="g938">
</g><g
     style="fill:#16aa8a;fill-opacity:0.94902"
     id="g940">
</g><g
     style="fill:#16aa8a;fill-opacity:0.94902"
     id="g942">
</g><g
     style="fill:#16aa8a;fill-opacity:0.94902"
     id="g944">
</g><g
     style="fill:#16aa8a;fill-opacity:0.94902"
     id="g946">
</g><g
     style="fill:#16aa8a;fill-opacity:0.94902"
     id="g948">
</g><g
     style="fill:#16aa8a;fill-opacity:0.94902"
     id="g950">
</g><g
     style="fill:#16aa8a;fill-opacity:0.94902"
     id="g952">
</g><g
     style="fill:#16aa8a;fill-opacity:0.94902"
     id="g954">
</g><g
     style="fill:#16aa8a;fill-opacity:0.94902"
     id="g956">
</g><g
     style="fill:#16aa8a;fill-opacity:0.94902"
     id="g958">
</g></g></svg>
